<?xml version="1.0" encoding="UTF-8" standalone="no"?>
<svg
   inkscape:export-ydpi="576"
   inkscape:export-xdpi="576"
   inkscape:export-filename="/media/taufikramadhan/Data/Tr Design Studio/Project Design/TR Creative Design/Icon Design/Project Hiring/Icon Icons/007 - Design And Development/Send/2 - Solid/SVG/4. Noted.png"
   width="64pt"
   height="64pt"
   viewBox="0 0 22.577778 22.577778"
   version="1.1"
   id="svg831"
   inkscape:version="1.1 (1:1.1+202106031931+af4d65493e)"
   sodipodi:docname="4. Noted.svg"
   xmlns:inkscape="http://www.inkscape.org/namespaces/inkscape"
   xmlns:sodipodi="http://sodipodi.sourceforge.net/DTD/sodipodi-0.dtd"
   xmlns="http://www.w3.org/2000/svg"
   xmlns:svg="http://www.w3.org/2000/svg"
   xmlns:rdf="http://www.w3.org/1999/02/22-rdf-syntax-ns#"
   xmlns:cc="http://creativecommons.org/ns#"
   xmlns:dc="http://purl.org/dc/elements/1.1/">
  <defs
     id="defs825">
    <pattern
       id="EMFhbasepattern"
       patternUnits="userSpaceOnUse"
       width="6"
       height="6"
       x="0"
       y="0" />
    <pattern
       id="EMFhbasepattern-9"
       patternUnits="userSpaceOnUse"
       width="6"
       height="6"
       x="0"
       y="0" />
    <pattern
       id="EMFhbasepattern-0"
       patternUnits="userSpaceOnUse"
       width="6"
       height="6"
       x="0"
       y="0" />
    <pattern
       id="EMFhbasepattern-7"
       patternUnits="userSpaceOnUse"
       width="6"
       height="6"
       x="0"
       y="0" />
    <pattern
       id="EMFhbasepattern-2"
       patternUnits="userSpaceOnUse"
       width="6"
       height="6"
       x="0"
       y="0" />
    <pattern
       id="EMFhbasepattern-98"
       patternUnits="userSpaceOnUse"
       width="6"
       height="6"
       x="0"
       y="0" />
    <pattern
       id="EMFhbasepattern-6"
       patternUnits="userSpaceOnUse"
       width="6"
       height="6"
       x="0"
       y="0" />
    <pattern
       id="EMFhbasepattern-01"
       patternUnits="userSpaceOnUse"
       width="6"
       height="6"
       x="0"
       y="0" />
    <pattern
       id="EMFhbasepattern-07"
       patternUnits="userSpaceOnUse"
       width="6"
       height="6"
       x="0"
       y="0" />
    <pattern
       id="EMFhbasepattern-8"
       patternUnits="userSpaceOnUse"
       width="6"
       height="6"
       x="0"
       y="0" />
    <pattern
       id="EMFhbasepattern-4"
       patternUnits="userSpaceOnUse"
       width="6"
       height="6"
       x="0"
       y="0" />
    <pattern
       id="EMFhbasepattern-40"
       patternUnits="userSpaceOnUse"
       width="6"
       height="6"
       x="0"
       y="0" />
    <pattern
       id="EMFhbasepattern-08"
       patternUnits="userSpaceOnUse"
       width="6"
       height="6"
       x="0"
       y="0" />
    <pattern
       id="EMFhbasepattern-04"
       patternUnits="userSpaceOnUse"
       width="6"
       height="6"
       x="0"
       y="0" />
    <pattern
       id="EMFhbasepattern-014"
       patternUnits="userSpaceOnUse"
       width="6"
       height="6"
       x="0"
       y="0" />
    <pattern
       id="EMFhbasepattern-27"
       patternUnits="userSpaceOnUse"
       width="6"
       height="6"
       x="0"
       y="0" />
    <pattern
       id="EMFhbasepattern-09"
       patternUnits="userSpaceOnUse"
       width="6"
       height="6"
       x="0"
       y="0" />
    <pattern
       id="EMFhbasepattern-5"
       patternUnits="userSpaceOnUse"
       width="6"
       height="6"
       x="0"
       y="0" />
    <pattern
       id="EMFhbasepattern-018"
       patternUnits="userSpaceOnUse"
       width="6"
       height="6"
       x="0"
       y="0" />
  </defs>
  <sodipodi:namedview
     id="base"
     pagecolor="#ffffff"
     bordercolor="#666666"
     borderopacity="1.0"
     inkscape:pageopacity="0.0"
     inkscape:pageshadow="2"
     inkscape:zoom="6.046875"
     inkscape:cx="36.382429"
     inkscape:cy="42.666667"
     inkscape:document-units="pt"
     inkscape:current-layer="layer1"
     showgrid="false"
     units="pt"
     inkscape:window-width="1366"
     inkscape:window-height="705"
     inkscape:window-x="0"
     inkscape:window-y="31"
     inkscape:window-maximized="1"
     inkscape:pagecheckerboard="true"
     inkscape:showpageshadow="false"
     inkscape:object-paths="true"
     inkscape:snap-intersection-paths="true"
     inkscape:snap-smooth-nodes="true"
     inkscape:snap-midpoints="true"
     showguides="false"
     inkscape:snap-bbox="true"
     inkscape:bbox-nodes="true"
     inkscape:snap-nodes="true"
     inkscape:snap-global="true"
     inkscape:document-rotation="0">
    <inkscape:grid
       type="xygrid"
       id="grid1378" />
    <sodipodi:guide
       position="0.97013831,21.607643"
       orientation="78.000048,0"
       id="guide1380"
       inkscape:locked="false" />
    <sodipodi:guide
       position="0.97013831,0.97013129"
       orientation="0,78.000005"
       id="guide1382"
       inkscape:locked="false" />
    <sodipodi:guide
       position="21.607639,0.97013129"
       orientation="-78.000048,0"
       id="guide1384"
       inkscape:locked="false" />
    <sodipodi:guide
       position="21.607639,21.607643"
       orientation="0,-78.000005"
       id="guide1386"
       inkscape:locked="false" />
  </sodipodi:namedview>
  <metadata
     id="metadata828">
    <rdf:RDF>
      <cc:Work
         rdf:about="">
        <dc:format>image/svg+xml</dc:format>
        <dc:type
           rdf:resource="http://purl.org/dc/dcmitype/StillImage" />
      </cc:Work>
    </rdf:RDF>
  </metadata>
  <g
     inkscape:label="Icon"
     inkscape:groupmode="layer"
     id="layer1"
     transform="translate(0,-274.42223)">
    <path
       d="m 20.751464,275.58284 -0.386475,0.67198 0.613813,0.35371 0.401852,-0.69204 c 0.100045,-0.17328 0.07413,-0.36015 -0.139077,-0.47272 -0.197702,-0.11413 -0.378595,-0.0252 -0.490113,0.13907 z m -6.035162,12.54703 c -0.254468,0.19043 -0.5883,0.18948 -0.828445,0.0509 -0.240147,-0.13865 -0.409405,-0.42729 -0.371765,-0.74286 l 0.201929,-1.68299 c 0.08885,-0.30273 0.148213,-0.6086 0.292669,-0.88997 0.363234,-0.63588 0.733565,-1.21287 1.144192,-1.66693 0.122377,-0.30274 0.14687,-0.42579 0.221319,-0.58974 0.172589,-0.29055 0.316166,-0.44391 0.491453,-0.63588 l 1.788613,-3.09581 c 0.279215,-0.76862 0.641282,-1.52769 1.045769,-2.09552 v -0.57168 c 2e-6,-0.42612 -0.340143,-0.76292 -0.766263,-0.76292 l -13.2871823,1e-5 c -0.3500799,-1e-5 -0.6371429,0.2288 -0.7294872,0.54629 0.1286394,-0.0233 0.255796,-0.0346 0.3777809,-0.0274 0.095891,0.005 0.1888368,0.0207 0.2781546,0.0448 0.3572739,0.0964 0.6826752,0.40626 0.6826816,0.80839 6.845e-4,0.19039 -0.1539726,0.3448 -0.3443504,0.34368 -0.1890696,-6.8e-4 -0.3417445,-0.15461 -0.3410057,-0.34368 0,-0.0716 -0.019176,-0.10403 -0.1765188,-0.14643 -0.1208631,-0.0326 -0.3061145,-0.0296 -0.5108429,0.0355 v 1.34997 c 0.140454,-0.0283 0.279072,-0.0405 0.4118816,-0.0327 0.095891,0.005 0.1888368,0.0207 0.2781546,0.0448 0.3572765,0.0964 0.6826752,0.40623 0.6826816,0.80837 -3.428e-4,0.18961 -0.1547567,0.34279 -0.3443504,0.34168 -0.1882894,-6.8e-4 -0.3406395,-0.15338 -0.3410057,-0.34168 0,-0.0716 -0.019202,-0.10662 -0.1765188,-0.14909 -0.1208631,-0.0326 -0.3061145,-0.0291 -0.5108429,0.0361 v 1.34998 c 0.140454,-0.0283 0.279072,-0.0405 0.4118816,-0.0327 0.095891,0.005 0.1888368,0.0207 0.2781546,0.0448 0.3572739,0.0964 0.6826752,0.40626 0.6826816,0.80839 6.845e-4,0.19038 -0.1539726,0.3448 -0.3443504,0.34368 -0.1890696,-7.6e-4 -0.3417445,-0.15462 -0.3410057,-0.34368 0,-0.0716 -0.019202,-0.10403 -0.1765188,-0.14643 -0.1208631,-0.0326 -0.3061145,-0.0296 -0.5108429,0.0355 v 1.34998 c 0.140454,-0.0283 0.279072,-0.0405 0.4118816,-0.0327 0.095891,0.005 0.1888368,0.0207 0.2781546,0.0448 0.3572765,0.0964 0.6826752,0.40624 0.6826816,0.80837 -3.428e-4,0.1896 -0.1547567,0.3428 -0.3443504,0.34168 -0.1882894,-7.5e-4 -0.3406395,-0.15339 -0.3410057,-0.34168 0,-0.0716 -0.019202,-0.10661 -0.1765188,-0.14909 -0.1208631,-0.0326 -0.3061145,-0.0292 -0.5108429,0.0361 v 1.34999 c 0.140454,-0.0283 0.279072,-0.0405 0.4118816,-0.0327 0.095891,0.005 0.1888368,0.0201 0.2781546,0.0441 0.3572765,0.0964 0.6826752,0.40694 0.6826816,0.80907 6.845e-4,0.19038 -0.1539726,0.34479 -0.3443504,0.34368 -0.1890696,-7.6e-4 -0.3417445,-0.15462 -0.3410057,-0.34368 0,-0.0716 -0.019202,-0.10403 -0.1765188,-0.14643 -0.1208631,-0.0326 -0.3061145,-0.0296 -0.5108429,0.0355 v 1.34997 c 0.140454,-0.0283 0.279072,-0.0405 0.4118816,-0.0327 0.095891,0.005 0.1888368,0.0207 0.2781546,0.0448 0.3572765,0.0964 0.6826752,0.40624 0.6826816,0.80837 -6.844e-4,0.18934 -0.1550168,0.34212 -0.3443504,0.34101 -0.1880294,-7.1e-4 -0.3402721,-0.15298 -0.3410057,-0.34101 0,-0.0716 -0.019202,-0.10661 -0.1765188,-0.14909 -0.1208631,-0.0326 -0.3061145,-0.0296 -0.5108429,0.0355 v 1.35066 c 0.140454,-0.0281 0.279072,-0.0405 0.4118816,-0.0327 0.095891,0.005 0.1888368,0.0201 0.2781546,0.0441 0.3572842,0.0964 0.6826752,0.40693 0.6826816,0.80906 6.845e-4,0.19039 -0.1539726,0.3448 -0.3443504,0.34369 -0.1890696,-7.7e-4 -0.3417445,-0.15462 -0.3410057,-0.34369 0,-0.0716 -0.019202,-0.1039 -0.1765188,-0.14643 -0.1208631,-0.0326 -0.3061145,-0.0296 -0.5108429,0.0355 v 1.37005 c 0.045843,-0.006 0.092734,-0.0205 0.1377394,-0.0234 0.2052835,-0.0137 0.4003944,0.0136 0.5723574,0.0709 0.343926,0.11464 0.662621,0.35314 0.662621,0.75289 -6.844e-4,0.18933 -0.1550168,0.34211 -0.3443504,0.341 -0.1880294,-7.1e-4 -0.3402721,-0.15298 -0.3410057,-0.341 0,0.0565 -0.023898,-0.0467 -0.1945739,-0.10365 -0.1287559,-0.0429 -0.3029263,-0.0578 -0.4927878,-0.006 v 1.53586 c 0,0.35422 0.280318,0.63388 0.6345383,0.63388 H 15.207094 v -3.08778 c -6.85e-4,-0.19012 0.153571,-0.34441 0.343683,-0.34369 h 3.151303 v -7.23268 l -0.428602,0.74152 c -0.06739,0.26605 -0.197791,0.53203 -0.302227,0.74152 -0.103978,0.14537 -0.201617,0.23003 -0.399847,0.48276 l -0.0021,0.006 -0.0021,0.006 c -0.252934,0.80362 -0.643029,1.55456 -1.152734,2.22122 -0.503605,0.46749 -1.123961,0.87719 -1.698362,1.30586 z m -2.673213,-11.86703 c 0.179769,0.21555 0.09344,0.36206 -0.05349,0.48009 l -1.350657,1.0812 c 0.06997,0.22464 0.107653,0.46298 0.107653,0.71009 0,1.32184 -1.0792405,2.40109 -2.4010925,2.40109 -1.3218482,0 -2.4004163,-1.07925 -2.4004163,-2.40109 0,-1.32185 1.0785681,-2.40042 2.4004163,-2.40042 0.8252964,0 1.556005,0.42021 1.9885405,1.05779 l 1.228293,-0.98224 c 0.16923,-0.12175 0.3231,-0.1255 0.480753,0.0534 z m 7.629187,0.44465 c -0.557089,0.63487 -0.976403,1.37293 -1.253701,2.17041 0.429635,0.24709 0.859317,0.49409 1.289141,0.74085 0.09236,-0.10403 0.161794,-0.17356 0.298213,-0.35638 0.410517,-0.5501 0.71102,-1.17265 0.932085,-1.82472 -0.344894,-0.35984 -0.781988,-0.61034 -1.265738,-0.73016 z m -17.0810929,0.11102 c -0.7961592,-3e-5 -1.4502858,0.65476 -1.4502832,1.45092 v 16.31216 c -2.6e-6,0.79615 0.654124,1.44829 1.4502832,1.44829 H 16.008127 c 0.72427,0 1.319233,-0.59498 1.319226,-1.31924 v -2.34626 l -1.526505,1.49842 c -0.06189,0.0793 -0.162128,0.11425 -0.250071,0.11037 H 4.5195411 c -0.7242559,0 -1.3192229,-0.59497 -1.3192255,-1.31923 v -15.83542 z m 5.7543194,0 c -0.9518126,0 -1.7157291,0.76393 -1.7157291,1.71573 0,0.95181 0.7639165,1.7164 1.7157291,1.7164 0.9518164,0 1.7157325,-0.76459 1.7157325,-1.7164 0,-0.08 -0.0069,-0.15767 -0.01739,-0.23468 l -1.4837119,1.1875 c -0.1564815,0.1268 -0.3881153,0.0919 -0.5001436,-0.0756 L 7.375301,278.38043 c -0.1055821,-0.1571 -0.06366,-0.37006 0.093614,-0.47541 0.1576628,-0.10455 0.3702892,-0.0615 0.4747353,0.0963 l 0.480083,0.71746 1.3720488,-1.09724 C 9.4928723,277.1396 8.9600345,276.81848 8.3454999,276.81848 Z m 3.7731425,2.05942 h 0.687361 c 0.188289,6.8e-4 0.340642,0.15338 0.341008,0.34167 6.85e-4,0.18907 -0.151934,0.34294 -0.341008,0.34368 h -0.687361 c -0.18907,-6.8e-4 -0.341746,-0.15461 -0.341006,-0.34368 3.43e-4,-0.18829 0.152716,-0.34093 0.341006,-0.34167 z m 2.05941,0 h 2.401092 c 0.189333,-6.9e-4 0.343312,0.15234 0.343678,0.34167 6.85e-4,0.19012 -0.153565,0.34442 -0.343678,0.34368 h -2.401092 c -0.190114,6.9e-4 -0.344422,-0.15356 -0.343679,-0.34368 3.43e-4,-0.18933 0.154347,-0.34241 0.343679,-0.34167 z m 3.919572,0.60177 -1.483044,2.56758 1.222945,0.70743 1.483712,-2.57227 z m -3.919555,2.83105 c 0.171278,-0.0104 0.344803,0.13759 0.336983,0.34133 -0.0078,0.20375 -0.176297,0.35001 -0.336983,0.34134 H 6.2634966 c -0.1731444,0.005 -0.3130161,-0.13142 -0.3130161,-0.34152 0,-0.21011 0.1499227,-0.34782 0.3130161,-0.34153 2.6472132,0.0117 5.2696814,-0.0194 7.9145754,3.8e-4 z m 2.080127,0.25941 c -0.126078,0.14286 -0.237714,0.27023 -0.26077,0.32095 -0.01681,0.037 -0.08434,0.22272 -0.123697,0.33632 l 1.309199,0.75824 c 0.0798,-0.0923 0.206191,-0.24489 0.23001,-0.27815 0.03224,-0.045 0.08655,-0.20587 0.146435,-0.38381 -0.352372,-0.37289 -0.802065,-0.63477 -1.301175,-0.75355 z m -9.2847221,1.11264 c 0.1874303,0.001 0.3369791,0.0978 0.3369791,0.34133 0,0.24348 -0.1764089,0.33765 -0.3369791,0.34134 H 6.2874544 c -0.1729011,0.003 -0.3369662,-0.10015 -0.3369662,-0.34168 0,-0.24151 0.1728054,-0.33912 0.3369662,-0.34168 0.1951393,-0.004 0.4708394,-5.8e-4 0.6860225,6.9e-4 z m 2.0580765,0 c 0.1802983,0.003 0.3407457,0.13984 0.3369791,0.35504 -0.00375,0.2152 -0.1538588,0.3324 -0.3369791,0.32763 H 8.345527 c -0.1420222,10e-4 -0.3389587,-0.11425 -0.3349114,-0.34168 0.00401,-0.22743 0.1981037,-0.34332 0.3349114,-0.34168 0.1951433,-0.004 0.470842,-5.8e-4 0.6860264,6.9e-4 z m 3.4307976,0 c 0.189053,0.001 0.338921,0.12745 0.336976,0.34133 -0.0021,0.21392 -0.178789,0.34278 -0.336976,0.34134 h -2.058077 c -0.189196,0.003 -0.332636,-0.13237 -0.336966,-0.32831 -0.0044,-0.19595 0.139058,-0.36144 0.308299,-0.35505 0.683124,-2.6e-4 1.483506,-0.004 2.086744,6.9e-4 z m 3.115839,0.10299 c -0.470215,0.53549 -0.868362,1.13075 -1.142039,1.7866 -6.84e-4,0.001 -0.0021,0.004 -0.0027,0.005 3e-6,8.9e-4 3e-6,0.001 0,0.003 -0.05305,0.13212 0.04069,0.4226 0.166491,0.50282 0.243459,0.15527 0.492,0.29872 0.748208,0.43194 0.132901,0.0691 0.434517,0.005 0.520873,-0.1083 0.432472,-0.56567 0.750972,-1.20934 0.980226,-1.88556 -0.346528,-0.36155 -0.784642,-0.61646 -1.271086,-0.7355 h 3.5e-5 z m -6.5827441,1.26975 c 0.1890528,-0.006 0.3378525,0.12512 0.3369804,0.34135 -0.00103,0.21616 -0.150584,0.34603 -0.3369804,0.34134 H 6.2874544 c -0.1838423,0.003 -0.3399111,-0.1224 -0.3369662,-0.34168 0.00311,-0.21928 0.162374,-0.34273 0.3369662,-0.34168 0.9124185,2e-5 1.7956558,-0.005 2.7079915,6.7e-4 z m 3.1238901,0 c 0.197077,-0.004 0.337852,0.12784 0.336979,0.34135 -10e-4,0.21349 -0.153257,0.34068 -0.336979,0.34134 h -1.715062 c -0.165126,-2.4e-4 -0.331881,-0.0983 -0.336966,-0.34168 -0.0051,-0.24334 0.186448,-0.34006 0.336966,-0.34168 0.581451,-0.003 1.133696,-0.003 1.715062,6.7e-4 z m 2.215851,1.29782 -0.139077,1.16544 c -0.0053,0.0441 0.0094,0.0532 0.03544,0.0682 0.02602,0.0149 0.03998,0.0213 0.07556,-0.005 l 0.940107,-0.70274 z m -2.221886,0.41558 c 0,0.20944 -0.174532,0.34333 -0.33698,0.34134 H 6.2874505 c -0.2012672,0.005 -0.3338608,-0.1341 -0.3369662,-0.34168 -0.00311,-0.20759 0.142545,-0.32966 0.3369662,-0.34168 1.3955098,10e-4 3.8593505,-0.004 5.4888705,6.8e-4 0.15906,0.001 0.33698,0.13191 0.33698,0.34134 z m -5.1398241,1.03138 c 0.1859746,-0.004 0.3369584,0.0996 0.3369791,0.34134 2.07e-5,0.24168 -0.1614152,0.33855 -0.3369791,0.34134 -0.23694,9.6e-4 -0.4810379,-2.7e-4 -0.7154302,-0.003 -0.1359759,7.1e-4 -0.3148367,-0.0949 -0.3055051,-0.34069 0.00932,-0.24588 0.1689677,-0.34468 0.3055051,-0.34067 0.2482267,-0.004 0.467316,-10e-4 0.7154302,6.9e-4 z m 2.0874946,0 c 0.2006682,10e-4 0.307561,0.18864 0.307561,0.34134 0,0.15269 -0.1091792,0.33766 -0.307561,0.34134 -0.23694,9.6e-4 -0.5104599,-2.7e-4 -0.7448522,-0.003 -0.1288852,-0.0131 -0.308151,-0.12999 -0.3075584,-0.34069 6.845e-4,-0.21068 0.1925347,-0.34052 0.3075584,-0.34067 0.2482267,-0.004 0.4967381,-10e-4 0.7448522,6.9e-4 z m 3.4013795,0 c 0.197073,-0.009 0.337848,0.12253 0.336976,0.34134 -10e-4,0.21884 -0.155942,0.35673 -0.336976,0.34134 h -2.058077 c -0.153989,10e-4 -0.338855,-0.1039 -0.336966,-0.34167 0.0021,-0.23773 0.189827,-0.3448 0.336966,-0.3417 0.695784,-10e-4 1.362376,-0.004 2.058077,6.9e-4 z m -3.4669051,1.37205 c 0.1837051,-8.6e-4 0.343204,0.12784 0.3369804,0.34134 -0.00621,0.21349 -0.1479108,0.33801 -0.3369804,0.34135 -0.9114973,-0.003 -1.8282193,0.004 -2.7373992,-0.003 -0.1373759,0.005 -0.3015263,-0.10766 -0.3055051,-0.34069 -0.00401,-0.23307 0.1743697,-0.33852 0.3055051,-0.34067 0.721822,10e-4 1.9238772,-0.004 2.7373992,6.9e-4 z m 4.8389511,0 c 0.189754,-0.005 0.336979,0.11477 0.336979,0.34134 0,0.22655 -0.170874,0.34044 -0.336979,0.34135 -1.152289,-0.003 -2.309531,0.004 -3.459533,-0.003 -0.161032,0.003 -0.310233,-0.13171 -0.307559,-0.34069 0.0027,-0.20896 0.147181,-0.3362 0.307559,-0.34067 0.0096,-8.5e-4 0.01989,-0.001 0.600783,-2.4e-4 0.580902,0.001 1.708809,-0.005 2.85875,9.3e-4 v 0 z m 2.057384,1.36863 v 2.27204 l 2.314835,-2.27204 z m -4.11546,0.004 c 0.176081,10e-4 0.33698,0.11865 0.33698,0.34135 0,0.22268 -0.161292,0.33935 -0.33698,0.34134 H 6.2874505 c -0.1891926,-0.005 -0.3423436,-0.13142 -0.3369662,-0.34235 0.00543,-0.21092 0.1685122,-0.34468 0.3369662,-0.34234 1.8386818,0.003 3.6523823,-0.004 5.4888705,0.003 v 0 z m 2.387695,0.34135 c 0,0.20146 -0.15022,0.34071 -0.329619,0.34134 -0.23694,9.6e-4 -0.481041,-2.7e-4 -0.715434,-0.003 -0.151354,-0.001 -0.310509,-0.13015 -0.307592,-0.34068 0.0031,-0.21053 0.151732,-0.33368 0.307592,-0.34067 0.259558,-0.004 0.485231,-10e-4 0.715434,6.8e-4 0.201959,0.006 0.329619,0.13989 0.329619,0.34135 v 0 z"
       style="color:#000000;font-style:normal;font-variant:normal;font-weight:normal;font-stretch:normal;font-size:medium;line-height:normal;font-family:sans-serif;font-variant-ligatures:normal;font-variant-position:normal;font-variant-caps:normal;font-variant-numeric:normal;font-variant-alternates:normal;font-variant-east-asian:normal;font-feature-settings:normal;font-variation-settings:normal;text-indent:0;text-align:start;text-decoration:none;text-decoration-line:none;text-decoration-style:solid;text-decoration-color:#000000;letter-spacing:normal;word-spacing:normal;text-transform:none;writing-mode:lr-tb;direction:ltr;text-orientation:mixed;dominant-baseline:auto;baseline-shift:baseline;text-anchor:start;white-space:normal;shape-padding:0;shape-margin:0;inline-size:0;clip-rule:nonzero;display:inline;overflow:visible;visibility:visible;opacity:1;isolation:auto;mix-blend-mode:normal;color-interpolation:sRGB;color-interpolation-filters:linearRGB;solid-color:#000000;solid-opacity:1;vector-effect:none;fill:#000000;fill-opacity:1;fill-rule:evenodd;stroke:none;stroke-width:0.684689;stroke-linecap:round;stroke-linejoin:round;stroke-miterlimit:4;stroke-dasharray:none;stroke-dashoffset:0;stroke-opacity:1;color-rendering:auto;image-rendering:auto;shape-rendering:auto;text-rendering:auto;enable-background:accumulate;stop-color:#000000;stop-opacity:1"
       id="path1328"
       sodipodi:nodetypes="cccccccsccccccccssccsscccsccssccccccsccccsccscccccccsscccsccsscccsccsscccscccscccscsscccccccccccccscsssscccsscccsscssccccsccssccsccccccccsccccccccccccccccccccccccczccccccccccccczcccccczcccccczcccccccccccccccccczccccccczccccczczcczczccccccccccczcczccczcczcccccczccccccczccccczcczccccczcczccccccccccccssccccc" />
  </g>
</svg>
